
<svg xmlns="http://www.w3.org/2000/svg" class="organization" viewBox="0 0 512 512" width="148" height="140">
    <path d="M195.9,96.567c.01.152.027.3.049.455l.527,3.606a15.662,15.662,0,0,0-7.99,10.258,19.052,19.052,0,0,0,8.454,20.718,12.567,12.567,0,0,0,1.933.929,57.331,57.331,0,0,0,32.108,47.294l-8.7,3.584.019.047c-.01,0,.2.006.186.01A5.808,5.808,0,0,0,219,189.011v6.2l-19.717,7.036a7.933,7.933,0,0,0-.756.277,33.635,33.635,0,0,0-18.407,27.041c-.014.166-.12.332-.12.5V273.8a6.252,6.252,0,0,0,6.091,6.2h140A6.1,6.1,0,0,0,332,273.8V230.064c0-.166.038-.332.025-.5a33.5,33.5,0,0,0-18.285-27.041c-.21-.105-.223-.2-.443-.276L294,195.212v-6.2a6.5,6.5,0,0,0-3.9-5.775L290,183h-.048l-8.927-3.435a57.184,57.184,0,0,0,32.017-47.022A18.945,18.945,0,0,0,323.4,110.857a15.642,15.642,0,0,0-7.948-10.219l.522-3.64c.021-.146.036-.288.046-.435a60.111,60.111,0,0,0-75.553-62.284A65.765,65.765,0,0,0,228.613,39.1c-.633.308-1.267.617-1.906.922A6,6,0,0,0,223.3,45.43a10.466,10.466,0,0,1-4.683,8.735L204,63.881a5.987,5.987,0,0,0-1.836,1.928l-.868,1.458a5.974,5.974,0,0,0-.323.62A60.326,60.326,0,0,0,195.9,96.567Zm80.32,112.323-6.7,13.392-4.018-2.678ZM267,200.78l-11.022,11.271L245,200.825V184.506a50.6,50.6,0,0,0,10.849,1.081A50.016,50.016,0,0,0,267,184.438ZM246.673,219.6l-4.018,2.678-6.7-13.393ZM192,230.33a22.276,22.276,0,0,1,11.446-16.921l18.076-6.515,13.428,26.834a6.011,6.011,0,0,0,5.375,3.317,5.86,5.86,0,0,0,3.285-1.008l6.39-4.29V268H192Zm128,0V268H262V231.747l6.479,4.29a6.08,6.08,0,0,0,4.9.807,6.011,6.011,0,0,0,3.832-3.116l13.42-26.834,18.009,6.515C315.026,216.727,319,223.166,320,230.33Zm-8.257-116.591a7.057,7.057,0,0,1-5.6,8.62,6.088,6.088,0,0,0-4.954,5.991,45.234,45.234,0,1,1-90.468-.078,6,6,0,0,0-4.936-5.906c-.726-.262-2.12-.827-2.738-1.1a7.052,7.052,0,0,1-2.906-7.526,3.857,3.857,0,0,1,3.509-2.931,5.974,5.974,0,0,0,2.092-.593,18.353,18.353,0,0,0,15.121-16.573c.687-7.571,3.855-13.2,10.49-18.525l2.769.028a3.258,3.258,0,0,1,3.238,3.243A14.631,14.631,0,0,0,252,93h30.684a9.888,9.888,0,0,1,9.854,9.881,11.072,11.072,0,0,0,17.868,8.743A3.672,3.672,0,0,1,311.743,113.739ZM234.955,49.355a49.759,49.759,0,0,1,8.626-3.486,48.171,48.171,0,0,1,60.483,49.659l-.254,1.749A21.918,21.918,0,0,0,282.684,81H252a2.617,2.617,0,0,1-2.637-2.611,15.307,15.307,0,0,0-15.119-15.256l-7.488-.068A22.411,22.411,0,0,0,234.955,49.355ZM211.031,74.917l4.088.04a35.892,35.892,0,0,0-6.2,17.6,6.836,6.836,0,0,1-1.046,3.029l-.01-.068A47.6,47.6,0,0,1,211.031,74.917Z" style="fill:#e40037"/>
    <path d="M472.405,402.5a8.028,8.028,0,0,0-.776-.276L452,395.19v-6.2a6.2,6.2,0,0,0-3.575-5.764l.053-.225h.033l-8.888-3.446a57.215,57.215,0,0,0,32.038-47.027,18.979,18.979,0,0,0,10.379-21.691,15.641,15.641,0,0,0-7.946-10.218l.523-3.642c.021-.146.037-.289.047-.435a60.108,60.108,0,0,0-75.553-62.284,65.751,65.751,0,0,0-11.856,4.816c-.632.308-1.267.617-1.9.922a6,6,0,0,0-3.41,5.413,10.467,10.467,0,0,1-4.683,8.735l-14.62,9.717a6,6,0,0,0-1.833,1.926l-.869,1.458a5.982,5.982,0,0,0-.322.621,60.317,60.317,0,0,0-5.069,28.68c.011.152.027.3.049.455l.528,3.606a15.661,15.661,0,0,0-7.99,10.258,19.051,19.051,0,0,0,8.454,20.719,12.572,12.572,0,0,0,1.933.928,57.33,57.33,0,0,0,32.107,47.294l-8.7,3.584.019.047c-.01,0-.124.006-.134.01A6.1,6.1,0,0,0,377,388.989v6.2l-19.4,7.037a5.088,5.088,0,0,0-.595.276,33.354,33.354,0,0,0-18.148,27.041c-.014.166.139.332.139.5v43.735A5.973,5.973,0,0,0,344.733,480h140A6.426,6.426,0,0,0,491,473.777V430.042c0-.166-.14-.332-.154-.5A33.672,33.672,0,0,0,472.405,402.5Zm-57.427,9.526L404,400.8V384.484a50.6,50.6,0,0,0,10.849,1.081A57.112,57.112,0,0,0,426,384.416v16.342Zm-9.663,7.553L401.3,422.26l-6.7-13.392Zm29.55-10.714-6.7,13.392-4.018-2.678ZM393.6,249.333a49.791,49.791,0,0,1,8.626-3.486,48.171,48.171,0,0,1,60.484,49.658l-.255,1.761A21.907,21.907,0,0,0,441.326,281H410.643a2.627,2.627,0,0,1-2.637-2.622,15.313,15.313,0,0,0-15.119-15.262l-7.488-.07A22.412,22.412,0,0,0,393.6,249.333ZM369.674,274.9l4.088.04a35.883,35.883,0,0,0-6.2,17.6,6.811,6.811,0,0,1-1.046,3.029l-.01-.069A47.6,47.6,0,0,1,369.674,274.9Zm-.308,53.355a6,6,0,0,0-4.935-5.906c-.725-.261-2.12-.827-2.739-1.1a7.052,7.052,0,0,1-2.906-7.526,3.858,3.858,0,0,1,3.509-2.931,5.974,5.974,0,0,0,2.092-.593,18.352,18.352,0,0,0,15.121-16.573c.687-7.571,3.855-13.2,10.491-18.525l2.768.027a3.269,3.269,0,0,1,3.239,3.255A14.641,14.641,0,0,0,410.643,293h30.683a9.878,9.878,0,0,1,9.854,9.87,11.07,11.07,0,0,0,17.868,8.735,3.659,3.659,0,0,1,1.338,2.11,7.1,7.1,0,0,1,.2,1.688,7.024,7.024,0,0,1-5.8,6.934,6.086,6.086,0,0,0-4.954,5.99,45.235,45.235,0,1,1-90.469-.077ZM351,430.308c0-7.164,4.885-13.6,11.267-16.921l17.987-6.515,13.383,26.834a5.966,5.966,0,0,0,5.342,3.317,6.424,6.424,0,0,0,3.458-1.008L409,431.726V468H351ZM479,468H421V431.725l6.3,4.29a5.77,5.77,0,0,0,4.768.807,5.971,5.971,0,0,0,3.81-3.116l13.409-26.834,18.182,6.515A22.372,22.372,0,0,1,479,430.308Z" style="fill:#e40037"/>
    <path d="M173,473.777V430.042c0-.166.127-.332.113-.5A33.453,33.453,0,0,0,154.872,402.5a4.051,4.051,0,0,0-.509-.276L135,395.19v-6.2a6.405,6.405,0,0,0-3.808-5.764l-.063-.225H131.1l-8.917-3.446a57.2,57.2,0,0,0,32.023-47.027,18.955,18.955,0,0,0,10.368-21.691,15.64,15.64,0,0,0-7.947-10.218l.522-3.642c.021-.146.036-.289.046-.435a60.108,60.108,0,0,0-75.553-62.284,65.751,65.751,0,0,0-11.856,4.816c-.632.308-1.267.617-1.905.922a6,6,0,0,0-3.41,5.413,10.467,10.467,0,0,1-4.683,8.735l-14.62,9.717a5.992,5.992,0,0,0-1.833,1.926l-.869,1.458a5.982,5.982,0,0,0-.322.621,60.317,60.317,0,0,0-5.069,28.68c.011.152.027.3.049.455l.528,3.606a15.661,15.661,0,0,0-7.99,10.258,19.051,19.051,0,0,0,8.454,20.719,12.572,12.572,0,0,0,1.933.928,57.332,57.332,0,0,0,32.107,47.294l-8.7,3.584.019.047c-.01,0,.109.006.1.01A5.884,5.884,0,0,0,60,388.989v6.2l-19.629,7.037a6.877,6.877,0,0,0-.711.276,33.7,33.7,0,0,0-18.473,27.041c-.014.166-.187.332-.187.5v43.735A6.426,6.426,0,0,0,27.267,480h140A5.973,5.973,0,0,0,173,473.777ZM97.478,412.029,86,400.8V384.484a63.311,63.311,0,0,0,11.349,1.081A62.219,62.219,0,0,0,109,384.416v16.342Zm-9.629,7.553-4.018,2.678-6.7-13.392Zm29.55-10.714-6.7,13.392-4.018-2.678ZM76.131,249.333a49.791,49.791,0,0,1,8.626-3.486,48.172,48.172,0,0,1,60.484,49.659l-.255,1.76A21.907,21.907,0,0,0,123.86,281H93.177a2.627,2.627,0,0,1-2.637-2.622,15.313,15.313,0,0,0-15.119-15.262l-7.488-.07A22.412,22.412,0,0,0,76.131,249.333ZM52.208,274.9l4.088.04a35.883,35.883,0,0,0-6.2,17.6,6.811,6.811,0,0,1-1.046,3.029l-.01-.069A47.58,47.58,0,0,1,52.208,274.9ZM51.9,328.25a6,6,0,0,0-4.935-5.906c-.726-.261-2.122-.827-2.74-1.1a7.048,7.048,0,0,1-2.906-7.525,3.858,3.858,0,0,1,3.509-2.931,5.974,5.974,0,0,0,2.092-.593,18.352,18.352,0,0,0,15.121-16.573c.687-7.571,3.855-13.2,10.491-18.525l2.769.027a3.269,3.269,0,0,1,3.238,3.255A14.641,14.641,0,0,0,93.177,293H123.86a9.878,9.878,0,0,1,9.854,9.87,11.07,11.07,0,0,0,17.868,8.735,3.659,3.659,0,0,1,1.338,2.11,7.153,7.153,0,0,1,.2,1.688,7.024,7.024,0,0,1-5.8,6.934,6.086,6.086,0,0,0-4.954,5.99A45.234,45.234,0,1,1,51.9,328.25ZM33,430.308a22.376,22.376,0,0,1,11.534-16.921l18.12-6.515,13.451,26.834a6.033,6.033,0,0,0,5.391,3.317,5.588,5.588,0,0,0,3.2-1.008L91,431.725V468H33ZM161,468H103V431.726l6.568,4.289a6.232,6.232,0,0,0,4.968.807,6.026,6.026,0,0,0,3.843-3.116l13.426-26.834,17.924,6.515c6.382,3.318,11.271,9.757,11.271,16.921Z" style="fill:#e40037"/>
    <path d="M256,299.75a6,6,0,0,0-6,6v58.311l-49.091,58.325a6,6,0,0,0,9.182,7.728L256,375.568l45.909,54.546a6,6,0,0,0,9.182-7.728L262,364.061V305.75A6,6,0,0,0,256,299.75Z" style="fill:#e40037"/>
</svg>
