<svg xmlns="http://www.w3.org/2000/svg" class="car-service" viewBox="0 0 512 512" width="128" height="130"><path d="M472.946 223.6c-.008-.074-.015-.148-.026-.221a6.9 6.9 0 0 0-.166-.816l-.023-.073a7.187 7.187 0 0 0-.251-.723 6.452 6.452 0 0 0-.082-.191q-.139-.316-.311-.621c-.026-.045-.049-.091-.075-.136a7.067 7.067 0 0 0-.477-.7c-.025-.032-.053-.061-.078-.092a6.81 6.81 0 0 0-.469-.526c-.065-.066-.133-.13-.2-.194s-.122-.125-.189-.183L400.5 158.07v-13.591a30.494 30.494 0 0 0-30.459-30.459h-11.71l-98-77.248a7 7 0 0 0-8.744.063l-95.125 77.185h-14.507a30.494 30.494 0 0 0-30.455 30.459v5.239l-70.42 69.7A6.975 6.975 0 0 0 39 224.4v216.023a36.163 36.163 0 0 0 9.849 24.824c.022.029.041.06.064.089a6.989 6.989 0 0 0 .967.971 36.183 36.183 0 0 0 25.426 10.422h361.387A36.348 36.348 0 0 0 473 440.423V224.4c0-.047-.008-.092-.009-.138q-.007-.336-.045-.662zM400.5 176.634l53.721 46.787-53.721 33.063zM256.063 51.233l79.657 62.787H178.681zM125.5 155.558l.214-.212-.214-.217v-10.65a16.477 16.477 0 0 1 16.459-16.459h18.713l.3.371.458-.371h192.052l.237.186.147-.186h16.179a16.477 16.477 0 0 1 16.455 16.459v14.687a7.028 7.028 0 0 0 0 3.741V265.1l-118.789 73.112a22.2 22.2 0 0 1-23.4-.014L125.5 264.886zm-14 13.858v86.832L57.457 222.9zM53 440.423V236.6l151.911 93.74L55.628 450.914A22.164 22.164 0 0 1 53 440.423zm383.693 22.306H75.306a22.164 22.164 0 0 1-9.429-2.1l151.665-122.5 19.412 11.978a36.123 36.123 0 0 0 38.095.023l19.1-11.755L445.84 460.76a22.175 22.175 0 0 1-9.147 1.969zM459 440.423a22.162 22.162 0 0 1-2.762 10.738L306.8 330.6 459 236.922z" fill="#e40037"/><path d="M186.35 179.35a7 7 0 0 0-7-7H161.5a7 7 0 0 0 0 14h17.85a7 7 0 0 0 7-7zm144.2 7h17.85a7 7 0 0 0 0-14h-17.85a7 7 0 0 0 0 14zM188.275 213.3a18.55 18.55 0 1 0 18.55 18.55 18.57 18.57 0 0 0-18.55-18.55zm0 23.1a4.55 4.55 0 1 1 4.55-4.55 4.555 4.555 0 0 1-4.55 4.55zm135.45 14a18.55 18.55 0 1 0-18.55-18.55 18.571 18.571 0 0 0 18.55 18.55zm0-23.1a4.55 4.55 0 1 1-4.55 4.55 4.555 4.555 0 0 1 4.55-4.55z" fill="#e40037"/><path d="M343.465 188.452l-15.527-28.622c-5.5-9.863-13.625-21.185-27.724-21.185h-87.688c-11.381 0-21.339 7.558-28.058 21.288l-16.036 28.415c-10.433 2.146-18.09 11.872-18.09 23.9a6.973 6.973 0 0 0 .055.879l5.124 40.476a15.829 15.829 0 0 0 9.972 14.181v10.168a11.417 11.417 0 0 0 11.4 11.4h13.374a11.417 11.417 0 0 0 11.405-11.4v-9.045h108.651v9.045a11.417 11.417 0 0 0 11.405 11.4H335.1a11.417 11.417 0 0 0 11.4-11.4V267.7a15.838 15.838 0 0 0 9.743-14.075l5.348-40.459a7.026 7.026 0 0 0 .06-.917c.006-11.749-7.825-21.573-18.186-23.797zm-146.7-21.823c.071-.127.139-.256.2-.386 2.463-5.079 7.759-13.6 15.56-13.6h87.688c5.387 0 10.021 4.188 15.457 13.933l11.607 21.4h-5.827a25.259 25.259 0 0 0-48.877 0h-87.854zm109.507 21.345h-18.51a11.224 11.224 0 0 1 18.51 0zm-118.6 87.381h-8.183v-6.449h8.183zm144.83 0h-8.183v-6.449h8.183zm9.812-23.174a6.845 6.845 0 0 0-.061.917 1.832 1.832 0 0 1-1.808 1.808H171.321a1.832 1.832 0 0 1-1.808-1.808 6.974 6.974 0 0 0-.056-.879l-5.109-40.364c.152-4.763 3.055-9.544 7.853-9.916.177.013.351.035.53.035h104.606a7 7 0 0 0 1.727.149 7.172 7.172 0 0 0 1.136-.149h58.714c.033 0 .064.005.1.005 5.195 0 8.464 5.042 8.639 9.863z" fill="#e40037"/><path d="M287.147 229.593h-62.294a7 7 0 0 0 0 14h62.294a7 7 0 0 0 0-14z" fill="#e40037"/></svg>