<svg xmlns="http://www.w3.org/2000/svg" class="maintenance" viewBox="0 0 512 512" width="145" height="141"><path d="M106.918 448.722a19 19 0 1 0-19-19 19.022 19.022 0 0 0 19 19zm0-24a5 5 0 1 1-5 5 5.006 5.006 0 0 1 5-5zM154.106 152.5a20.043 20.043 0 0 0 .146 40.085h.15a20.043 20.043 0 1 0-.3-40.084zm6.191 20a6.04 6.04 0 0 1-6 6.086h-.045a6.043 6.043 0 0 1-.044-12.085h.046a6.041 6.041 0 0 1 6.041 6zM358.5 150.994h-.15a20.043 20.043 0 0 0 .142 40.085h.151a20.066 20.066 0 0 0 19.9-20.189 20.066 20.066 0 0 0-20.043-19.896zm.041 26.084h-.041a6.043 6.043 0 0 1-.043-12.085h.045a6.042 6.042 0 0 1 .044 12.084zm-65.064 16.136l-73.878.544a7 7 0 0 0 .05 14h.053l73.878-.544a7 7 0 0 0-.1-14zm128.586 93.763l-1.206.651c-9.431-10.648-25.1-14.624-37.122-8.529q-.078.039-.156.081l-4.376 2.358a41.009 41.009 0 0 0-46.19-3.639l-27.741 15.085h-37a52.522 52.522 0 0 1-22.743-5.211l-5.137-2.485a89.564 89.564 0 0 0-93.215 9.1c-.154.115-.3.236-.446.364L134.325 305.8a41.644 41.644 0 0 1-20.13 9.848 7 7 0 0 0 2.543 13.768 55.655 55.655 0 0 0 26.9-13.159l12.186-10.85a75.619 75.619 0 0 1 78.476-7.516l5.138 2.484a66.61 66.61 0 0 0 28.838 6.608H318.1a30.1 30.1 0 0 1 29.134 22.683l-34.274-1.55a217.334 217.334 0 0 0-39.563 1.827 7 7 0 0 0 1.92 13.868 203.444 203.444 0 0 1 37.01-1.71l42.5 1.923c.1 0 .211.008.316.008a7 7 0 0 0 7-7c0-.625-.021-1.244-.046-1.863l5.039-2.657 61.57-33.216a22.99 22.99 0 0 1 26.481 3.267l-122.927 84.4a84.24 84.24 0 0 1-51.611 7.14l-74.679-13.751a34.717 34.717 0 0 0-25.27 3.448 6.554 6.554 0 0 0-.323.193l-40.559 25.64a7 7 0 1 0 7.481 11.834l40.391-25.537a20.757 20.757 0 0 1 15.1-1.939c.145.036.291.068.438.1l74.909 13.793a98.356 98.356 0 0 0 60.776-8.581 6.958 6.958 0 0 0 .855-.5l129.557-88.955a7 7 0 0 0 2.035-9.382 36.972 36.972 0 0 0-49.297-13.489zm-82.283 3.178c.056-.03.112-.061.166-.093a26.983 26.983 0 0 1 25.213-.957l-21.9 11.8a43.918 43.918 0 0 0-12.241-5.986zm20.774 30.006l-1.465.772a43.993 43.993 0 0 0-5.364-9.764l36.409-19.617c5.679-2.836 12.7-.929 17.744 3.078zm-27.401-197.073a7 7 0 0 0 7 6.949h.052a7 7 0 0 0 6.949-7.052 33.088 33.088 0 0 0-66.174.487 7 7 0 0 0 7 6.949h.051a7 7 0 0 0 6.949-7.051 19.088 19.088 0 1 1 38.174-.282zm-110.18 30.871h-.052a7 7 0 0 0-6.949 7.052l.088 12.018a7 7 0 0 0 7 6.949h.051a7 7 0 0 0 6.95-7.051l-.088-12.019a7 7 0 0 0-7-6.949zm-22.261.165h-.053a7 7 0 0 0-6.948 7.051l.089 12.019a7 7 0 0 0 7 6.948h.053a7 7 0 0 0 6.948-7.052l-.089-12.018a7 7 0 0 0-7-6.948zm111.303-.824h-.053a7 7 0 0 0-6.948 7.052l.089 12.019a7 7 0 0 0 7 6.948h.052a7 7 0 0 0 6.949-7.052l-.089-12.019a7 7 0 0 0-7-6.948zm-66.782.495h-.051a7 7 0 0 0-6.95 7.052l.088 12.018a7 7 0 0 0 7 6.949h.052a7 7 0 0 0 6.949-7.051l-.088-12.019a7 7 0 0 0-7-6.949zm22.261-.164h-.052a7 7 0 0 0-6.949 7.052l.088 12.018a7 7 0 0 0 7 6.949h.052a7 7 0 0 0 6.949-7.051l-.088-12.019a7 7 0 0 0-7-6.949zm22.26-.164h-.054a7 7 0 0 0-6.948 7.052l.089 12.019a7 7 0 0 0 7 6.948h.053a7 7 0 0 0 6.948-7.052l-.089-12.018a7 7 0 0 0-6.999-6.949z" fill="#e40037"/><path d="M355.818 75.039c-7.525-13.262-18.518-28.456-36.948-28.456h-.248l-125.268.923c-15.074.112-28.284 10.437-37.215 29.084l-9.763 17.6c-5.6.031-15.671.086-21.448.129-11.424.084-20.7 5.984-23.645 15.028a48.318 48.318 0 0 0-2.277 11.962A7 7 0 0 0 106 128.6h.061l9.73-.084a33.408 33.408 0 0 0-7.52 21.773 6.994 6.994 0 0 0 .063.879l7.765 57.912a19.613 19.613 0 0 0 14.385 18.239l.123 16.673a13.293 13.293 0 0 0 13.29 13.194h.1l19.106-.141a13.294 13.294 0 0 0 13.194-13.39l-.117-15.921 161.211-1.188.117 15.921a13.293 13.293 0 0 0 13.292 13.191h.1l19.106-.14a13.307 13.307 0 0 0 13.194-13.39l-.123-16.753a19.659 19.659 0 0 0 13.789-18.346l7.234-58.006a7.025 7.025 0 0 0 .053-.918 33.115 33.115 0 0 0-8.088-21.641l9.992-.077a7 7 0 0 0 6.932-7.387 48.353 48.353 0 0 0-2.452-11.927c-3.053-8.937-12.307-14.679-23.617-14.679h-.248c-5.728.042-15.633.081-21.216.1zm-187.334 8.155c.072-.127.138-.256.2-.387 3.765-7.914 11.992-21.206 24.772-21.3l125.269-.923h.135c8.87 0 16.29 6.4 24.742 21.294l19.242 34.855-213.834 1.575zm-54.149 31.331q.123-.419.262-.845c1.012-3.117 5.3-5.32 10.434-5.358 3.569-.026 8.777-.058 13.556-.085l-3.388 6.108zM144.6 243.178l-.112-15.214 17.69-.13.112 15.213zm206.9-1.525l-.111-15.214 17.689-.13.112 15.214zm31.418-35.948a7.051 7.051 0 0 0-.054.919 5.619 5.619 0 0 1-5.542 5.624l-241.611 1.78h-.041a5.622 5.622 0 0 1-5.583-5.543 6.981 6.981 0 0 0-.063-.879l-7.755-57.837c.1-10.445 7.039-16.874 14.07-17.422a6.851 6.851 0 0 0 .733.048h.052l237.384-1.75c.035 0 .07.006.106.006h.053a14.1 14.1 0 0 1 10.815 4.98 19.345 19.345 0 0 1 4.659 12.151zm3.855-99.311c5.118-.057 9.454 2.1 10.514 5.2.1.287.19.573.278.855l-21 .162-3.394-6.149c4.781-.017 10.013-.042 13.604-.068zM59.686 459.264a7 7 0 0 0 6.948 6.153h90a7 7 0 0 0 6.7-9.042l-50-164a7 7 0 0 0-6.695-4.958h-60a7 7 0 0 0-6.948 7.847zm41.764-157.847l45.732 150h-74.35l-18.293-150z" fill="#e40037"/></svg>